<svg width="1578" height="480" viewBox="0 0 1578 480" fill="none" xmlns="http://www.w3.org/2000/svg">
<path fill-rule="evenodd" clip-rule="evenodd" d="M924.881 58.2696C924.881 89.6849 950.938 115.742 983.119 115.742C1014.53 115.742 1040.59 90.4183 1040.59 58.2377C1040.59 26.0571 1015.33 0 983.119 0C950.907 0 924.881 26.8544 924.881 58.2696ZM1447.27 58.2696C1447.27 89.6849 1473.33 115.742 1505.51 115.742C1536.92 115.742 1562.98 90.4183 1562.98 58.2377C1562.98 26.0571 1537.69 0 1505.51 0C1473.33 0 1447.27 26.8544 1447.27 58.2696ZM1032.84 156.183H932.633V476.427H1032.84V156.183ZM1400.35 14.1622H1116.63V476.458H1216.84V301.811H1371.23V214.422H1216.84V101.551H1400.35V14.1622ZM1555.23 156.183H1455.02V476.427H1555.23V156.183ZM349.395 214.422V156.089H407.633V214.327H465.837V232.761C465.837 254.098 464.019 279.357 459.843 299.227C457.512 310.326 453.974 321.361 449.829 331.95C445.584 342.762 440.674 353.126 435.346 362.441C428.393 374.561 420.326 386.232 410.979 397.173L410.253 398.03C407.825 400.896 405.422 403.731 402.785 406.485C399.946 409.546 396.981 412.416 393.981 415.289C356.729 451.169 308.156 473.558 257.413 478.725C251.322 479.362 239.042 480 232.919 480C226.795 479.969 214.516 479.331 208.425 478.725C157.65 473.558 109.108 451.169 71.8563 415.289L71.8245 415.258C68.8375 412.365 65.8821 409.505 63.0535 406.485C60.4152 403.731 58.0138 400.896 55.5861 398.033L54.8571 397.173C45.5122 386.232 37.4431 374.592 30.4903 362.441C25.164 353.16 20.2524 342.794 16.0106 331.95C11.8644 321.361 8.32423 310.326 5.99599 299.227C1.81793 279.357 0 254.098 0 232.761V14.1622H116.38V214.422C116.38 214.422 116.38 229.763 116.571 234.802L116.606 235.766C116.848 242.348 117.084 248.765 117.783 255.182C119.697 273.17 123.683 290.233 131.88 304.649C134.24 308.827 136.664 312.878 139.535 316.705C157.044 340.051 183.707 357.593 216.94 362.472C220.895 363.045 228.9 363.555 232.887 363.555C236.906 363.555 244.879 363.045 248.834 362.472C282.067 357.593 308.73 340.051 326.24 316.705C329.11 312.846 331.534 308.827 333.894 304.649C342.091 290.201 346.077 273.17 347.99 255.182C348.689 248.765 348.926 242.349 349.169 235.767L349.203 234.802C349.395 229.763 349.395 214.422 349.395 214.422ZM407.568 54.2208H363.905V97.883H407.568V54.2208ZM422.143 10.5266H451.262V39.6456H422.143V10.5266ZM465.806 156.088H407.599V130.573L407.568 97.883L465.806 97.8826V156.088ZM848.849 476.458H749.307V288.19C749.307 288.19 749.307 281.589 749.211 279.42C749.119 276.454 749.023 273.551 748.704 270.649C747.874 262.899 746.184 255.563 742.642 249.376C741.624 247.59 740.602 245.868 739.358 244.209C731.832 234.163 720.381 226.636 706.094 224.531C704.403 224.276 700.958 224.052 699.237 224.052C697.512 224.052 694.07 224.276 692.38 224.531C678.089 226.636 666.641 234.163 659.112 244.209C657.871 245.836 656.849 247.59 655.827 249.376C652.289 255.595 650.599 262.931 649.769 270.649C649.481 273.551 649.354 276.454 649.258 279.42C649.162 281.589 649.162 288.19 649.162 288.19V476.109H549.624V155.864H645.528V184.983C645.528 184.983 679.683 142.468 747.809 145.467C809.047 148.178 848.849 195.157 848.849 259.008V476.458Z" fill="black"/>
</svg>
