<svg width="1500" height="600" viewBox="0 0 1500 600" fill="none" xmlns="http://www.w3.org/2000/svg">
<path fill-rule="evenodd" clip-rule="evenodd" d="M475.584 284.685C456.004 387.233 361.924 461.669 251.909 461.669C238.217 461.657 224.423 460.464 210.917 458.137C149.148 447.453 96.1154 414.092 61.5881 364.204C29.538 317.895 17.6024 262.481 27.9775 208.171C47.5692 105.631 141.648 31.2042 251.682 31.2042C265.325 31.2042 279.115 32.3901 292.666 34.7289C352.446 45.0787 404.415 76.9376 438.999 124.444C473.322 171.609 486.314 228.514 475.584 284.685ZM458.669 110.129C420.338 57.4766 362.86 22.1905 296.813 10.7601C281.899 8.18336 266.723 6.87646 251.682 6.87646C129.991 6.87646 25.8592 89.6203 4.08287 203.609C-20.7403 333.549 70.2058 458.488 206.772 482.107C221.671 484.678 236.858 485.981 251.883 485.995C373.572 485.995 477.714 403.241 499.479 289.249C511.489 226.391 496.99 162.787 458.669 110.129Z" fill="#004178"/>
<path fill-rule="evenodd" clip-rule="evenodd" d="M251.797 117.717C270.505 117.717 285.717 102.499 285.717 83.7849C285.717 65.0905 270.505 49.8662 251.797 49.8662C233.085 49.8662 217.878 65.0905 217.878 83.7849C217.878 102.499 233.085 117.717 251.797 117.717Z" fill="#004178"/>
<path fill-rule="evenodd" clip-rule="evenodd" d="M424.267 157.1L424.236 156.849C424.152 156.209 424.049 155.473 423.852 154.662C423.659 153.853 423.413 153.127 423.183 152.487L423.103 152.228L423.001 151.921C422.785 151.291 422.533 150.568 422.18 149.789C421.827 149.005 421.441 148.348 421.105 147.765L420.973 147.542L420.852 147.32C420.514 146.739 420.134 146.081 419.65 145.393C419.149 144.698 418.657 144.125 418.22 143.626L418.01 143.384L417.863 143.214C417.407 142.699 416.886 142.09 416.25 141.486C415.583 140.877 414.973 140.397 414.428 139.976L414.343 139.914C413.701 139.408 412.981 138.86 412.166 138.336C411.969 138.183 411.682 137.959 411.306 137.747L390.504 125.743L346.997 100.853C346.917 100.804 346.837 100.76 346.755 100.724C343.082 98.6548 338.935 97.5703 334.735 97.5703C325.977 97.5703 317.812 102.281 313.437 109.855C310.148 115.549 309.276 122.169 310.973 128.511C312.678 134.856 316.745 140.155 322.435 143.431L369.781 170.912C369.961 171.033 370.117 171.148 370.296 171.261C370.614 171.457 370.969 171.728 371.264 171.97L371.482 172.143C371.672 172.284 371.861 172.422 372.034 172.584C372.228 172.767 372.473 173.058 372.711 173.321C372.733 173.349 372.75 173.376 372.77 173.395C373.025 173.68 373.275 173.963 373.396 174.137C373.531 174.326 373.696 174.615 373.876 174.921L373.948 175.048L374.045 175.211C374.211 175.5 374.367 175.767 374.445 175.937C374.533 176.124 374.633 176.431 374.744 176.752L374.812 176.951L374.865 177.102C374.974 177.406 375.07 177.712 375.116 177.892C375.179 178.151 375.228 178.527 375.282 178.894C375.337 179.313 375.393 179.717 375.403 180.061C375.407 180.265 375.428 180.498 375.458 180.72V309.716C375.428 309.95 375.407 310.18 375.403 310.408C375.393 310.717 375.337 311.12 375.286 311.509C375.228 311.912 375.179 312.283 375.116 312.535C375.07 312.722 374.974 313.012 374.871 313.325L374.802 313.508L374.744 313.687C374.633 314.007 374.529 314.304 374.447 314.479C374.367 314.657 374.211 314.93 374.045 315.215L373.948 315.379L373.876 315.509C373.702 315.813 373.54 316.104 373.415 316.274C373.302 316.436 373.101 316.664 372.904 316.896L372.729 317.093L372.657 317.171C372.411 317.448 372.187 317.704 372.021 317.86C371.865 318.006 371.675 318.144 371.488 318.291L371.256 318.482C370.969 318.706 370.614 318.97 370.296 319.176C370.127 319.276 369.961 319.395 369.781 319.527L276.384 373.153V175.297C276.384 175.229 276.378 175.17 276.378 175.104C276.27 161.637 265.285 150.714 251.796 150.714C238.234 150.714 227.203 161.739 227.203 175.297V373.153L133.79 319.514C133.632 319.401 133.486 319.291 133.33 319.196C132.998 318.993 132.698 318.761 132.331 318.474L132.177 318.353C131.968 318.191 131.757 318.029 131.564 317.854C131.391 317.684 131.17 317.438 130.942 317.177L130.825 317.038L130.696 316.902C130.499 316.67 130.293 316.436 130.193 316.295C130.072 316.116 129.922 315.862 129.768 315.613L129.62 315.347L129.544 315.226C129.387 314.957 129.231 314.684 129.163 314.528C129.066 314.313 128.962 314.013 128.849 313.705L128.769 313.471L128.73 313.336C128.623 313.024 128.523 312.728 128.478 312.552C128.422 312.316 128.375 312.025 128.33 311.711L128.295 311.483C128.241 311.054 128.192 310.685 128.184 310.371C128.18 310.186 128.155 309.968 128.135 309.745V180.685C128.161 180.443 128.18 180.228 128.184 179.994C128.192 179.747 128.241 179.378 128.305 178.921L128.33 178.724C128.375 178.41 128.422 178.116 128.461 177.944C128.523 177.702 128.627 177.398 128.73 177.084L128.787 176.932L128.849 176.735C128.962 176.421 129.066 176.118 129.138 175.957C129.231 175.744 129.393 175.477 129.549 175.208L129.639 175.05L129.774 174.817C129.922 174.568 130.072 174.318 130.164 174.185C130.31 173.975 130.542 173.708 130.772 173.448L130.839 173.376C131.129 173.038 131.358 172.779 131.564 172.574C131.761 172.393 131.972 172.239 132.187 172.073L132.308 171.981C132.702 171.669 133.008 171.443 133.267 171.281C133.298 171.258 133.334 171.24 133.365 171.221C133.513 171.119 133.648 171.025 133.79 170.92L155.241 158.61L181.084 143.411C186.737 140.155 190.811 134.856 192.506 128.511C194.207 122.169 193.33 115.549 190.051 109.855C185.67 102.281 177.51 97.5703 168.752 97.5703C164.549 97.5703 160.396 98.6587 156.717 100.73C156.637 100.767 156.557 100.808 156.481 100.853L92.299 137.747C91.8816 137.988 91.5812 138.213 91.4018 138.353C90.5552 138.895 89.8257 139.451 89.221 139.941C88.6749 140.353 88.0253 140.858 87.3758 141.468C86.7087 142.09 86.1937 142.689 85.7314 143.214L85.5968 143.366L85.3784 143.618C84.9395 144.113 84.4421 144.698 83.9486 145.381C83.4297 146.118 83.0357 146.801 82.6866 147.416L82.6046 147.568L82.4974 147.747C82.1482 148.34 81.7678 149.005 81.4109 149.789C81.0461 150.579 80.7964 151.299 80.5858 151.939L80.4922 152.218L80.3927 152.507C80.1684 153.146 79.9265 153.87 79.7256 154.707C79.5383 155.491 79.4388 156.244 79.3491 156.901L79.3179 157.118C79.2106 157.875 79.0858 158.774 79.0448 159.771C79.0097 160.024 78.9648 160.391 78.9648 160.83V329.606C78.9648 330.07 79.0097 330.451 79.0448 330.687C79.0897 331.701 79.2106 332.589 79.3179 333.34L79.3452 333.54C79.4388 334.2 79.5383 334.949 79.7295 335.764C79.9265 336.574 80.1684 337.299 80.3927 337.933L80.4824 338.198L80.5858 338.499C80.8003 339.139 81.05 339.874 81.4109 340.658C81.7678 341.436 82.156 342.113 82.5071 342.704L82.6183 342.901L82.6768 343.01C83.026 343.619 83.4297 344.315 83.9447 345.047C84.4323 345.734 84.9219 346.291 85.3413 346.791L85.5695 347.044L85.7724 347.273C86.2191 347.78 86.7262 348.357 87.3446 348.952C88.0351 349.6 88.6924 350.105 89.2756 350.548C89.8745 351.024 90.5825 351.562 91.392 352.083C91.6046 352.245 91.8914 352.463 92.2659 352.685L238.46 437.079C238.544 437.13 238.63 437.179 238.724 437.224C239.391 437.59 240.019 437.885 240.577 438.142L240.725 438.209L240.86 438.275C241.15 438.423 241.451 438.574 241.751 438.693C242.024 438.802 242.297 438.893 242.588 438.985C245.576 440.089 248.679 440.661 251.779 440.661C255.124 440.661 258.372 440.052 261.454 438.837C261.606 438.782 261.754 438.724 261.906 438.665C262.244 438.517 262.577 438.349 262.911 438.191L263.17 438.066L263.412 437.949C263.855 437.745 264.343 437.516 264.877 437.218C264.961 437.179 265.047 437.13 265.123 437.079L411.302 352.691C411.717 352.444 412.023 352.213 412.207 352.075C413.036 351.546 413.746 351 414.356 350.516L414.454 350.444C415.002 350.017 415.618 349.539 416.242 348.952C416.869 348.357 417.38 347.78 417.826 347.269L417.984 347.087L418.131 346.906C418.597 346.375 419.122 345.778 419.633 345.064C420.148 344.347 420.532 343.664 420.877 343.063L420.984 342.87C421.365 342.23 421.796 341.501 422.18 340.658C422.566 339.806 422.835 339.006 423.068 338.302L423.107 338.187C423.358 337.479 423.631 336.681 423.852 335.778C424.062 334.902 424.17 334.128 424.259 333.451L424.273 333.332C424.384 332.571 424.495 331.672 424.546 330.687C424.577 330.421 424.626 330.051 424.626 329.606V160.83C424.626 160.364 424.577 159.979 424.542 159.751C424.488 158.739 424.376 157.857 424.267 157.1Z" fill="#004178"/>
<path fill-rule="evenodd" clip-rule="evenodd" d="M646.653 491.266C646.653 493.77 644.745 495.922 642.122 495.922C637.472 495.922 635.923 490.433 625.427 490.433C617.675 490.433 611.95 495.319 611.95 502.478C611.95 521.2 652.261 512.256 652.261 540.875C652.261 554.949 642.005 567.707 623.519 567.707C612.311 567.707 599.907 563.414 599.907 557.451C599.907 554.59 601.337 552.087 604.319 552.087C607.897 552.087 612.904 558.645 623.638 558.645C634.493 558.645 641.049 550.776 641.049 541.357C641.049 521.2 600.742 530.976 600.742 503.194C600.742 493.296 610.041 481.369 625.788 481.369C636.28 481.369 646.653 485.781 646.653 491.266Z" fill="#004178"/>
<path fill-rule="evenodd" clip-rule="evenodd" d="M704.37 531.458C704.37 522.39 699.121 511.896 687.554 511.896C674.557 511.424 669.903 521.797 669.546 531.458H704.37ZM669.546 539.325C669.546 550.18 676.465 558.646 688.27 558.646C702.22 558.646 705.798 550.057 709.736 550.057C711.643 550.057 713.551 551.727 713.551 554.709C713.551 559.835 700.552 567.708 688.151 567.708C667.876 567.708 659.052 552.086 659.052 535.272C659.052 518.101 669.782 502.835 687.554 502.835C704.846 502.835 714.864 518.458 714.864 533.723C714.864 537.419 713.551 539.325 709.02 539.325H669.546Z" fill="#004178"/>
<path fill-rule="evenodd" clip-rule="evenodd" d="M751.944 502.836C762.676 502.836 768.996 506.532 768.996 510.826C768.996 512.969 767.209 515.238 764.707 515.238C760.652 515.238 759.099 511.896 751.944 511.896C738.945 511.896 733.819 524.54 733.819 535.272C733.819 546.004 738.945 558.644 751.944 558.644C759.341 558.644 761.248 555.069 764.582 555.069C766.971 555.069 768.639 556.617 768.639 559.479C768.639 563.415 762.797 567.708 751.944 567.708C732.626 567.708 723.325 552.086 723.325 535.272C723.325 518.458 732.626 502.836 751.944 502.836Z" fill="#004178"/>
<path fill-rule="evenodd" clip-rule="evenodd" d="M780.203 508.44C780.203 504.982 782.232 502.836 785.452 502.836C788.675 502.836 790.699 504.982 790.699 508.44V542.068C790.699 552.921 795.468 558.644 805.366 558.644C815.265 558.644 820.034 552.921 820.034 542.068V508.44C820.034 504.982 822.063 502.836 825.283 502.836C828.502 502.836 830.53 504.982 830.53 508.44V542.425C830.53 561.03 818.126 567.708 805.366 567.708C792.605 567.708 780.203 561.03 780.203 542.425V508.44Z" fill="#004178"/>
<path fill-rule="evenodd" clip-rule="evenodd" d="M845.552 508.44C845.552 504.982 847.578 502.836 850.801 502.836C854.021 502.836 856.044 504.982 856.044 508.44V513.804H856.286C858.671 508.918 864.515 502.836 870.591 502.836C874.292 502.836 876.437 505.22 876.437 508.2C876.437 511.182 874.292 513.092 869.879 513.925C863.677 515 856.044 519.648 856.044 531.931V562.101C856.044 565.559 854.021 567.708 850.801 567.708C847.578 567.708 845.552 565.559 845.552 562.101V508.44Z" fill="#004178"/>
<path fill-rule="evenodd" clip-rule="evenodd" d="M894.8 562.1C894.8 565.558 892.777 567.708 889.557 567.708C886.337 567.708 884.306 565.558 884.306 562.1V508.439C884.306 504.981 886.337 502.835 889.557 502.835C892.777 502.835 894.8 504.981 894.8 508.439V562.1ZM889.557 481.367C893.132 481.367 895.996 484.231 895.996 487.808C895.996 491.387 893.132 494.249 889.557 494.249C885.978 494.249 883.116 491.387 883.116 487.808C883.116 484.231 885.978 481.367 889.557 481.367Z" fill="#004178"/>
<path fill-rule="evenodd" clip-rule="evenodd" d="M913.165 503.554V489.839C913.165 486.379 915.19 484.231 918.41 484.231C921.631 484.231 923.659 486.379 923.659 489.839V503.554H927.95C931.407 503.554 933.2 505.22 933.2 508.081C933.2 510.941 931.407 512.614 927.95 512.614H923.659V562.101C923.659 565.559 921.631 567.709 918.41 567.709C915.19 567.709 913.165 565.559 913.165 562.101V512.614V503.554Z" fill="#004178"/>
<path fill-rule="evenodd" clip-rule="evenodd" d="M1030.5 503.554V489.839C1030.5 486.379 1032.53 484.231 1035.75 484.231C1038.97 484.231 1041 486.379 1041 489.839V503.554H1045.29C1048.75 503.554 1050.54 505.22 1050.54 508.081C1050.54 510.941 1048.75 512.614 1045.29 512.614H1041V562.101C1041 565.559 1038.97 567.709 1035.75 567.709C1032.53 567.709 1030.5 565.559 1030.5 562.101V512.614V503.554Z" fill="#004178"/>
<path fill-rule="evenodd" clip-rule="evenodd" d="M938.561 513.092C937.369 509.514 937.133 508.439 937.133 507.25C937.133 504.622 939.514 502.835 941.902 502.835C944.524 502.835 946.429 504.503 947.147 506.768L961.695 550.293H961.936L976.246 506.768C976.96 504.503 978.63 502.835 981.255 502.835C983.635 502.835 986.024 504.622 986.024 507.25C986.024 508.439 985.786 509.514 984.592 513.092L958.119 588.813C957.282 591.078 955.611 592.752 952.991 592.752C950.604 592.752 948.222 590.965 948.222 588.337C948.222 587.148 948.458 586.073 949.771 582.493L956.449 564.726L938.561 513.092Z" fill="#004178"/>
<path fill-rule="evenodd" clip-rule="evenodd" d="M1084.52 558.645C1097.4 558.645 1101.93 546.005 1101.93 535.273C1101.93 524.541 1097.4 511.895 1084.52 511.895C1071.64 511.895 1067.11 524.541 1067.11 535.273C1067.11 546.005 1071.64 558.645 1084.52 558.645ZM1084.52 502.836C1102.41 502.836 1112.43 518.457 1112.43 535.273C1112.43 552.087 1102.41 567.707 1084.52 567.707C1066.63 567.707 1056.62 552.087 1056.62 535.273C1056.62 518.457 1066.63 502.836 1084.52 502.836Z" fill="#004178"/>
<path fill-rule="evenodd" clip-rule="evenodd" d="M1185.4 493.533H1185.17L1168.83 539.447H1201.74L1185.4 493.533ZM1160.12 563.773C1159.29 566.038 1157.86 567.707 1155 567.707C1152.25 567.707 1149.99 566.038 1149.99 563.297C1149.99 561.863 1151.06 559.123 1151.42 558.046L1177.77 487.808C1179.09 484.115 1181.23 481.369 1185.28 481.369C1189.34 481.369 1191.49 484.115 1192.8 487.808L1219.15 558.046C1219.51 559.123 1220.58 561.863 1220.58 563.297C1220.58 566.038 1218.32 567.707 1215.57 567.707C1212.71 567.707 1211.28 566.038 1210.45 563.773L1204.96 548.508H1165.61L1160.12 563.773Z" fill="#004178"/>
<path fill-rule="evenodd" clip-rule="evenodd" d="M1255.76 502.836C1266.49 502.836 1272.81 506.532 1272.81 510.826C1272.81 512.969 1271.02 515.238 1268.52 515.238C1264.46 515.238 1262.91 511.896 1255.76 511.896C1242.76 511.896 1237.63 524.54 1237.63 535.272C1237.63 546.004 1242.76 558.644 1255.76 558.644C1263.16 558.644 1265.06 555.069 1268.4 555.069C1270.78 555.069 1272.45 556.617 1272.45 559.479C1272.45 563.415 1266.61 567.708 1255.76 567.708C1236.44 567.708 1227.14 552.086 1227.14 535.272C1227.14 518.458 1236.44 502.836 1255.76 502.836Z" fill="#004178"/>
<path fill-rule="evenodd" clip-rule="evenodd" d="M1309.9 502.836C1320.63 502.836 1326.95 506.532 1326.95 510.826C1326.95 512.969 1325.16 515.238 1322.66 515.238C1318.6 515.238 1317.05 511.896 1309.9 511.896C1296.9 511.896 1291.77 524.54 1291.77 535.272C1291.77 546.004 1296.9 558.644 1309.9 558.644C1317.29 558.644 1319.2 555.069 1322.54 555.069C1324.92 555.069 1326.59 556.617 1326.59 559.479C1326.59 563.415 1320.75 567.708 1309.9 567.708C1290.58 567.708 1281.27 552.086 1281.27 535.272C1281.27 518.458 1290.58 502.836 1309.9 502.836Z" fill="#004178"/>
<path fill-rule="evenodd" clip-rule="evenodd" d="M1379.66 531.458C1379.66 522.39 1374.41 511.896 1362.84 511.896C1349.84 511.424 1345.19 521.797 1344.83 531.458H1379.66ZM1344.83 539.325C1344.83 550.18 1351.75 558.646 1363.55 558.646C1377.51 558.646 1381.08 550.057 1385.02 550.057C1386.93 550.057 1388.84 551.727 1388.84 554.709C1388.84 559.835 1375.84 567.708 1363.44 567.708C1343.17 567.708 1334.34 552.086 1334.34 535.272C1334.34 518.101 1345.07 502.835 1362.84 502.835C1380.13 502.835 1390.15 518.458 1390.15 533.723C1390.15 537.419 1388.84 539.325 1384.3 539.325H1344.83Z" fill="#004178"/>
<path fill-rule="evenodd" clip-rule="evenodd" d="M1421.51 502.836C1430.21 502.836 1442.61 507.486 1442.61 514.042C1442.61 516.309 1441.06 518.337 1437.84 518.337C1433.31 518.337 1431.52 511.896 1421.51 511.896C1415.55 511.896 1410.41 514.52 1410.41 519.888C1410.41 530.977 1444.28 529.785 1444.28 548.148C1444.28 561.389 1432.96 567.708 1421.15 567.708C1407.8 567.708 1397.3 561.03 1397.3 555.664C1397.3 552.8 1399.33 550.894 1401.59 550.894C1406.24 550.894 1410.06 558.644 1421.51 558.644C1429.14 558.644 1433.79 554.353 1433.79 550.058C1433.79 537.656 1399.92 538.374 1399.92 520.725C1399.92 509.035 1410.89 502.836 1421.51 502.836Z" fill="#004178"/>
<path fill-rule="evenodd" clip-rule="evenodd" d="M1475.64 502.836C1484.35 502.836 1496.75 507.486 1496.75 514.042C1496.75 516.309 1495.2 518.337 1491.98 518.337C1487.45 518.337 1485.66 511.896 1475.64 511.896C1469.68 511.896 1464.55 514.52 1464.55 519.888C1464.55 530.977 1498.42 529.785 1498.42 548.148C1498.42 561.389 1487.09 567.708 1475.28 567.708C1461.93 567.708 1451.44 561.03 1451.44 555.664C1451.44 552.8 1453.47 550.894 1455.73 550.894C1460.38 550.894 1464.2 558.644 1475.64 558.644C1483.28 558.644 1487.93 554.353 1487.93 550.058C1487.93 537.656 1454.06 538.374 1454.06 520.725C1454.06 509.035 1465.03 502.836 1475.64 502.836Z" fill="#004178"/>
<path fill-rule="evenodd" clip-rule="evenodd" d="M719.102 92.8394C749.57 92.8394 808.839 102.858 808.839 139.585C808.839 154.61 798.405 167.551 782.96 167.551C765.85 167.551 754.16 152.941 719.102 152.941C667.349 152.941 640.636 196.767 640.636 247.692C640.636 297.36 667.767 339.932 719.102 339.932C754.16 339.932 768.354 322.4 785.467 322.4C804.247 322.4 813.013 341.186 813.013 350.783C813.013 390.854 749.99 400.033 719.102 400.033C634.375 400.033 575.523 332.837 575.523 246.44C575.523 159.618 633.957 92.8394 719.102 92.8394Z" fill="#004178"/>
<path fill-rule="evenodd" clip-rule="evenodd" d="M925.695 337.427H967.849C1021.69 337.427 1046.32 297.775 1046.32 247.692C1046.32 194.262 1021.28 155.447 963.677 155.447H925.695V337.427ZM863.083 129.986C863.083 110.786 876.439 97.8501 895.225 97.8501H964.51C1058 97.8501 1111.43 157.95 1111.43 250.614C1111.43 338.262 1054.66 395.028 968.684 395.028H896.058C882.283 395.028 863.083 387.518 863.083 363.723V129.986Z" fill="#004178"/>
<path fill-rule="evenodd" clip-rule="evenodd" d="M1144.81 140.839C1142.72 135.412 1141.88 131.238 1141.88 125.396C1141.88 107.866 1157.32 95.3452 1174.02 95.3452C1188.21 95.3452 1196.98 104.529 1202.4 115.797L1267.1 289.428L1331.79 115.797C1337.22 104.529 1345.98 95.3452 1360.17 95.3452C1376.87 95.3452 1392.31 107.866 1392.31 125.396C1392.31 131.238 1391.47 135.412 1389.39 140.839L1297.98 373.325C1292.56 386.677 1285.46 397.534 1267.1 397.534C1248.73 397.534 1241.64 386.677 1236.21 373.325L1144.81 140.839Z" fill="#004178"/>
<path fill-rule="evenodd" clip-rule="evenodd" d="M1430.28 127.901C1430.28 107.03 1443.63 95.3457 1461.58 95.3457C1479.53 95.3457 1492.89 107.03 1492.89 127.901V364.973C1492.89 385.844 1479.53 397.532 1461.58 397.532C1443.63 397.532 1430.28 385.844 1430.28 364.973V127.901Z" fill="#004178"/>
</svg>
