<svg width="1509" height="480" viewBox="0 0 1509 480" fill="none" xmlns="http://www.w3.org/2000/svg">
<path fill-rule="evenodd" clip-rule="evenodd" d="M431.609 0H461.379V29.7717H431.609V0ZM357.23 148.826V208.467C357.23 208.467 357.23 224.152 357.031 229.304L356.997 230.289C356.75 237.019 356.51 243.58 355.793 250.141C353.835 268.532 349.762 285.945 341.38 300.717C338.967 304.989 336.489 309.097 333.554 313.043C315.652 336.913 288.391 354.847 254.413 359.835C250.369 360.425 242.217 360.946 238.109 360.946C234.033 360.946 225.848 360.425 221.804 359.835C187.826 354.847 160.565 336.913 142.663 313.043C139.728 309.13 137.25 304.989 134.837 300.717C126.456 285.978 122.38 268.532 120.424 250.141C119.709 243.58 119.468 237.02 119.221 230.289L119.185 229.304C118.989 224.152 118.989 208.467 118.989 208.467V3.71705H0V227.217C0 249.032 1.8587 274.858 6.13042 295.174C8.51088 306.521 12.1304 317.804 16.3696 328.63C20.7065 339.717 25.7283 350.314 31.1739 359.805C38.2827 372.226 46.5326 384.13 56.087 395.314L56.832 396.192C59.3143 399.12 61.7698 402.021 64.4674 404.835C67.3594 407.925 70.3807 410.849 73.4349 413.805L73.4674 413.835C111.554 450.521 161.185 473.414 213.098 478.694C219.326 479.314 231.88 479.966 238.141 480C244.402 480 256.956 479.349 263.185 478.694C315.065 473.414 364.728 450.521 402.816 413.835C405.881 410.901 408.912 407.966 411.816 404.835C414.514 402.021 416.969 399.123 419.451 396.195L420.195 395.314C429.751 384.13 438 372.195 445.107 359.805C450.555 350.283 455.575 339.684 459.912 328.63C464.153 317.804 467.77 306.521 470.153 295.174C474.425 274.858 476.283 249.032 476.283 227.217V208.369H416.77V148.826H476.249V89.315H416.739V122.739L416.77 148.826H357.23ZM416.705 44.641H372.065V89.2824H416.705V44.641ZM778.303 339.783C807 365.87 850.694 393.912 895.663 393.912C937.402 393.912 960.847 365.87 960.847 336.522C960.847 313.044 948.456 302.609 928.889 293.478C925.224 291.645 921.141 290.017 916.999 288.363C913.773 287.077 910.509 285.775 907.368 284.348C814.142 247.174 750.226 217.826 750.226 135.033C750.261 76.3697 798.521 0.0979217 910.011 0.0979217C968.019 0.0979217 1021.5 34.6632 1058.67 77.0218L999.326 137.022C975.195 109.631 940.663 84.8479 902.835 84.8479C869.575 84.8479 853.272 108.326 853.272 132.457C853.272 167.674 882.617 178.761 910.663 189.196C1003.89 223.109 1065.85 253.076 1065.85 333.946C1065.85 395.218 1013.67 480 896.314 480C830.479 480 770.479 447.391 724.824 402.425L778.303 339.783ZM664.498 3.71705H562.042V476.349H664.498V3.71705ZM1246.89 476.349V316.076H1303.86C1409.77 316.076 1492.21 274.532 1492.21 159.228C1492.21 43.9234 1403.71 3.71705 1303.86 3.71705H1144.43V476.349H1246.89ZM1246.89 233.576V85.4671H1303.86C1352.8 85.4671 1383.62 110.282 1383.62 160.532C1383.62 210.782 1354.14 233.576 1303.86 233.576H1246.89Z" fill="black"/>
</svg>
